<svg xmlns="http://www.w3.org/2000/svg"  viewBox="0 0 128 128" width="64px" height="64px"><path fill="#44AAFF" d="M24,117h60c7.2,0,13-5.8,13-13V59c0-1.7-1.3-3-3-3s-3,1.3-3,3v45c0,3.9-3.1,7-7,7H24c-3.9,0-7-3.1-7-7V44	c0-3.9,3.1-7,7-7h45c1.7,0,3-1.3,3-3s-1.3-3-3-3H24c-7.2,0-13,5.8-13,13v60C11,111.2,16.8,117,24,117z"/><path fill="#44AAFF" d="M114,47c1.7,0,3-1.3,3-3V14c0-1.7-1.3-3-3-3H84c-1.7,0-3,1.3-3,3s1.3,3,3,3h22.8L60.4,63.4	c-1.2,1.2-1.2,3.1,0,4.2c0.6,0.6,1.4,0.9,2.1,0.9s1.5-0.3,2.1-0.9L111,21.2V44C111,45.7,112.3,47,114,47z"/></svg>